<svg width="12" height="10" viewBox="0 0 12 10" fill="none" xmlns="http://www.w3.org/2000/svg">
<path fill-rule="evenodd" clip-rule="evenodd" d="M0.47144 4.45143C0.205203 4.48809 0 4.71969 0 4.99993C0 5.30564 0.244208 5.55347 0.545455 5.55347L10.1333 5.55347L6.6698 9.05423L6.61686 9.1162C6.45797 9.33257 6.47495 9.64013 6.6682 9.83706C6.88077 10.0537 7.22613 10.0544 7.43959 9.83868L11.8318 5.39973C11.858 5.37429 11.8816 5.34623 11.9024 5.31597C12.0511 5.0998 12.0301 4.79995 11.8396 4.60737L7.43955 0.161287L7.37826 0.107824C7.16439 -0.0524988 6.8614 -0.0339699 6.66817 0.162973C6.45561 0.379612 6.45636 0.730097 6.66983 0.945805L10.1342 4.44638L0.545455 4.44638L0.47144 4.45143Z" fill="white"/>
</svg>
