<svg width="179" height="31" viewBox="0 0 179 31" fill="none" xmlns="http://www.w3.org/2000/svg">
<path d="M17.2913 18.6693H7.73714L5.07017 23.0654H0L13.2762 2.55025H17.9654L23.0063 23.0654H18.2585L17.2913 18.6693ZM16.5 15.0645L14.7709 7.1515L9.9352 15.0645H16.5Z" fill="white"/>
<path d="M30.4428 23.2999C29.0751 23.2999 27.7758 23.1533 26.5449 22.8603C25.3335 22.5476 24.3859 22.1471 23.7021 21.6586L25.4605 18.3469C26.1444 18.7963 26.9748 19.1578 27.9517 19.4313C28.9481 19.7048 29.9446 19.8416 30.941 19.8416C31.9765 19.8416 32.7483 19.7146 33.2563 19.4606C33.7643 19.1871 34.0183 18.8061 34.0183 18.3176C34.0183 17.9268 33.7936 17.6435 33.3442 17.4677C32.8948 17.2919 32.1719 17.1062 31.1755 16.9109C30.0423 16.6959 29.1044 16.4615 28.362 16.2075C27.6391 15.9535 27.0041 15.5432 26.457 14.9766C25.9295 14.3904 25.6657 13.5991 25.6657 12.6027C25.6657 10.8638 26.3886 9.50586 27.8344 8.52895C29.2998 7.55204 31.2146 7.06358 33.5787 7.06358C34.6728 7.06358 35.7377 7.18081 36.7732 7.41527C37.8087 7.64973 38.6879 7.97211 39.4109 8.38241L37.7696 11.7235C36.4801 10.9224 34.9268 10.5218 33.1098 10.5218C32.1133 10.5218 31.3513 10.6684 30.8238 10.9615C30.3158 11.2545 30.0618 11.6258 30.0618 12.0751C30.0618 12.4854 30.2865 12.7883 30.7359 12.9837C31.1853 13.1595 31.9375 13.3549 32.9925 13.5698C34.1062 13.7847 35.0147 14.0192 35.7181 14.2732C36.441 14.5077 37.0663 14.9082 37.5938 15.4748C38.1213 16.0414 38.3851 16.8132 38.3851 17.7901C38.3851 19.5485 37.6426 20.9064 36.1577 21.8638C34.6924 22.8212 32.7874 23.2999 30.4428 23.2999Z" fill="white"/>
<path d="M46.4813 17.497C46.4422 17.6533 46.4226 17.8682 46.4226 18.1418C46.4226 19.1578 46.9795 19.6657 48.0932 19.6657C48.6988 19.6657 49.3143 19.4801 49.9395 19.1089L50.6136 22.362C49.5976 22.9872 48.2885 23.2999 46.6864 23.2999C45.2015 23.2999 44.0097 22.9091 43.1109 22.1276C42.2121 21.346 41.7628 20.2714 41.7628 18.9038C41.7628 18.513 41.8116 18.0538 41.9093 17.5263L43.1695 11.1666H40.737L41.4404 7.64973H43.8729L44.6349 3.81046H49.2068L48.4448 7.64973H52.372L51.6687 11.1666H47.7415L46.4813 17.497Z" fill="white"/>
<path d="M60.0966 9.17371C60.7804 8.43126 61.601 7.89396 62.5584 7.56181C63.5353 7.22966 64.6783 7.06358 65.9874 7.06358L65.1668 11.2838C64.6197 11.2448 64.268 11.2252 64.1117 11.2252C62.7245 11.2252 61.6108 11.5671 60.7707 12.251C59.95 12.9348 59.3932 13.9997 59.1001 15.4455L57.5761 23.0654H53.0042L56.1401 7.29804H60.4776L60.0966 9.17371Z" fill="white"/>
<path d="M73.6036 23.2999C72.021 23.2999 70.624 23.0068 69.4127 22.4206C68.2208 21.8345 67.2928 21.0139 66.6285 19.9588C65.9837 18.8842 65.6613 17.6435 65.6613 16.2368C65.6613 14.4979 66.0716 12.9348 66.8922 11.5476C67.7128 10.1604 68.8461 9.06625 70.2919 8.26518C71.7377 7.46412 73.3692 7.06358 75.1862 7.06358C76.7884 7.06358 78.1853 7.35665 79.3772 7.9428C80.569 8.52895 81.4873 9.35932 82.1321 10.4339C82.7964 11.489 83.1285 12.7199 83.1285 14.1267C83.1285 15.8656 82.7182 17.4286 81.8976 18.8158C81.0965 20.203 79.9633 21.2972 78.4979 22.0983C77.0521 22.8993 75.4207 23.2999 73.6036 23.2999ZM73.8967 19.5192C74.7759 19.5192 75.5672 19.3043 76.2706 18.8744C76.974 18.4251 77.521 17.8096 77.9118 17.0281C78.3026 16.2466 78.4979 15.3478 78.4979 14.3318C78.4979 13.2572 78.1853 12.4073 77.5601 11.7821C76.9349 11.1568 76.0557 10.8442 74.9224 10.8442C74.0237 10.8442 73.2226 11.0689 72.5192 11.5183C71.8159 11.9481 71.2688 12.5538 70.878 13.3354C70.4873 14.1169 70.2919 15.0156 70.2919 16.0316C70.2919 17.1062 70.6045 17.9562 71.2297 18.5814C71.8745 19.2066 72.7635 19.5192 73.8967 19.5192Z" fill="white"/>
<path d="M90.2882 23.2999C88.9205 23.2999 87.6212 23.1533 86.3903 22.8603C85.179 22.5476 84.2313 22.1471 83.5475 21.6586L85.306 18.3469C85.9898 18.7963 86.8202 19.1578 87.7971 19.4313C88.7935 19.7048 89.79 19.8416 90.7864 19.8416C91.822 19.8416 92.5937 19.7146 93.1017 19.4606C93.6097 19.1871 93.8637 18.8061 93.8637 18.3176C93.8637 17.9268 93.639 17.6435 93.1896 17.4677C92.7403 17.2919 92.0173 17.1062 91.0209 16.9109C89.8877 16.6959 88.9498 16.4615 88.2074 16.2075C87.4845 15.9535 86.8495 15.5432 86.3024 14.9766C85.7749 14.3904 85.5111 13.5991 85.5111 12.6027C85.5111 10.8638 86.234 9.50586 87.6798 8.52895C89.1452 7.55204 91.06 7.06358 93.4241 7.06358C94.5182 7.06358 95.5831 7.18081 96.6186 7.41527C97.6541 7.64973 98.5333 7.97211 99.2563 8.38241L97.6151 11.7235C96.3255 10.9224 94.7722 10.5218 92.9552 10.5218C91.9587 10.5218 91.1967 10.6684 90.6692 10.9615C90.1612 11.2545 89.9072 11.6258 89.9072 12.0751C89.9072 12.4854 90.1319 12.7883 90.5813 12.9837C91.0307 13.1595 91.7829 13.3549 92.8379 13.5698C93.9516 13.7847 94.8602 14.0192 95.5635 14.2732C96.2864 14.5077 96.9117 14.9082 97.4392 15.4748C97.9667 16.0414 98.2305 16.8132 98.2305 17.7901C98.2305 19.5485 97.4881 20.9064 96.0031 21.8638C94.5378 22.8212 92.6328 23.2999 90.2882 23.2999Z" fill="white"/>
<path d="M103.249 7.29804H107.792L104.656 23.0654H100.114L103.249 7.29804Z" fill="white"/>
<path d="M128.301 7.29804L125.693 20.4277C125.107 23.3976 123.974 25.5663 122.293 26.934C120.633 28.3017 118.405 28.9855 115.611 28.9855C114.087 28.9855 112.681 28.8096 111.391 28.458C110.121 28.1063 109.027 27.5885 108.109 26.9047L110.277 23.5929C110.903 24.1205 111.704 24.5308 112.681 24.8238C113.677 25.1365 114.722 25.2928 115.817 25.2928C117.36 25.2928 118.532 24.9508 119.333 24.267C120.134 23.6027 120.682 22.5867 120.975 21.219L121.092 20.545C119.822 21.7173 118.22 22.3034 116.285 22.3034C114.976 22.3034 113.794 22.0396 112.739 21.5121C111.684 20.965 110.844 20.1933 110.219 19.1968C109.613 18.2004 109.31 17.0281 109.31 15.6799C109.31 14.0778 109.691 12.6222 110.453 11.3131C111.215 10.0041 112.261 8.96856 113.589 8.20657C114.937 7.44458 116.442 7.06358 118.103 7.06358C119.333 7.06358 120.408 7.29804 121.326 7.76696C122.264 8.21634 122.968 8.91971 123.436 9.87709L123.935 7.29804H128.301ZM117.516 18.5521C118.845 18.5521 119.939 18.1222 120.799 17.2625C121.658 16.4029 122.088 15.2989 122.088 13.9508C122.088 12.9934 121.776 12.2412 121.15 11.6941C120.525 11.1275 119.656 10.8442 118.542 10.8442C117.194 10.8442 116.08 11.2741 115.201 12.1338C114.341 12.9934 113.912 14.0973 113.912 15.4455C113.912 16.4029 114.234 17.1649 114.879 17.7315C115.523 18.2785 116.403 18.5521 117.516 18.5521Z" fill="white"/>
<path d="M141.73 7.06358C143.488 7.06358 144.885 7.5325 145.921 8.47033C146.956 9.38863 147.474 10.7075 147.474 12.4268C147.474 13.0716 147.406 13.7066 147.269 14.3318L145.511 23.0654H140.939L142.638 14.6249C142.717 14.2927 142.756 13.9313 142.756 13.5405C142.756 12.7199 142.531 12.0947 142.082 11.6648C141.632 11.235 140.958 11.0201 140.059 11.0201C138.887 11.0201 137.91 11.362 137.129 12.0458C136.367 12.7101 135.849 13.7164 135.575 15.0645L133.993 23.0654H129.421L132.557 7.29804H136.894L136.543 8.99787C137.949 7.70834 139.678 7.06358 141.73 7.06358Z" fill="white"/>
<path d="M168.994 7.29804L165.858 23.0654H161.52L161.813 21.5121C160.504 22.7039 158.892 23.2999 156.978 23.2999C155.747 23.2999 154.613 23.0166 153.578 22.4499C152.542 21.8833 151.712 21.0725 151.087 20.0174C150.481 18.9428 150.178 17.6826 150.178 16.2368C150.178 14.4979 150.559 12.9348 151.321 11.5476C152.103 10.1409 153.158 9.04671 154.486 8.26518C155.815 7.46412 157.28 7.06358 158.883 7.06358C161.305 7.06358 163.015 7.85488 164.011 9.43748L164.422 7.29804H168.994ZM158.384 19.5192C159.283 19.5192 160.084 19.3043 160.788 18.8744C161.491 18.4251 162.038 17.8096 162.429 17.0281C162.82 16.2466 163.015 15.3478 163.015 14.3318C163.015 13.2572 162.693 12.4073 162.048 11.7821C161.423 11.1568 160.543 10.8442 159.41 10.8442C158.511 10.8442 157.71 11.0689 157.007 11.5183C156.304 11.9481 155.756 12.5538 155.366 13.3354C154.975 14.1169 154.78 15.0156 154.78 16.0316C154.78 17.1062 155.092 17.9562 155.717 18.5814C156.362 19.2066 157.251 19.5192 158.384 19.5192Z" fill="white"/>
<path d="M174.428 1.31934H179L174.663 23.0654H170.091L174.428 1.31934Z" fill="white"/>
<path d="M169.771 29.7701C170.279 30.2195 170.924 30.4442 171.706 30.4442C172.604 30.4442 173.337 30.1902 173.904 29.6822C174.47 29.1547 174.754 28.4708 174.754 27.6307C174.754 26.9859 174.5 26.4486 173.992 26.0188C173.503 25.5694 172.858 25.3447 172.057 25.3447C171.158 25.3447 170.426 25.6085 169.859 26.136C169.312 26.644 169.039 27.2888 169.039 28.0703C169.039 28.7346 169.283 29.3012 169.771 29.7701Z" fill="#F15131"/>
<path d="M104.364 4.42541C104.872 4.87479 105.516 5.09948 106.298 5.09948C107.197 5.09948 107.929 4.84548 108.496 4.33749C109.062 3.80996 109.346 3.12612 109.346 2.28597C109.346 1.64121 109.092 1.10391 108.584 0.674069C108.095 0.22469 107.451 0 106.65 0C105.751 0 105.018 0.263766 104.451 0.791299C103.904 1.29929 103.631 1.94406 103.631 2.72559C103.631 3.38989 103.875 3.9565 104.364 4.42541Z" fill="#1FBF75"/>
</svg>
